<svg xmlns="http://www.w3.org/2000/svg" xmlns:xlink="http://www.w3.org/1999/xlink" width="1587" zoomAndPan="magnify" viewBox="0 0 1190.25 1683.749949" height="2245" preserveAspectRatio="xMidYMid meet" version="1.0"><defs><clipPath id="f0d28abbbe"><path d="M 1 0.40625 L 1189 0.40625 L 1189 1181 L 1 1181 Z M 1 0.40625 " clip-rule="nonzero"/></clipPath><clipPath id="632132890f"><path d="M 11.015625 12.421875 L 1176.234375 12.421875 L 1176.234375 1170.148438 L 11.015625 1170.148438 Z M 11.015625 12.421875 " clip-rule="nonzero"/></clipPath><clipPath id="81ebb80755"><path d="M 11.015625 12.421875 L 1176 12.421875 L 1176 1170.148438 L 11.015625 1170.148438 Z M 11.015625 12.421875 " clip-rule="nonzero"/></clipPath><clipPath id="02f0868d1a"><rect x="0" width="1188" y="0" height="1181"/></clipPath></defs><g clip-path="url(#f0d28abbbe)"><g transform="matrix(1, 0, 0, 1, 1, 0.000000000000081046)"><g clip-path="url(#02f0868d1a)"><path fill="#cc0000" d="M 1174.324219 599.972656 C 1174.375 597.070312 1174.394531 594.144531 1174.394531 590.757812 L 1174.386719 589.742188 C 1174.386719 557.773438 1149.253906 531.667969 1117.675781 530.148438 C 1148.019531 521.449219 1166.546875 490.382812 1159.320312 459.289062 C 1158.660156 456.410156 1157.96875 453.546875 1157.261719 450.699219 C 1149.527344 419.707031 1118.851562 400.46875 1087.882812 406.578125 C 1115.28125 390.84375 1125.8125 356.203125 1111.292969 327.738281 C 1109.96875 325.144531 1108.617188 322.539062 1107.253906 319.960938 C 1092.339844 291.78125 1058.011719 280.472656 1029.390625 293.769531 C 1052.164062 271.929688 1054.070312 235.835938 1033.203125 211.695312 C 1031.292969 209.5 1029.371094 207.308594 1027.433594 205.125 C 1006.183594 181.269531 970.101562 178.488281 945.503906 198.285156 C 962.472656 171.707031 955.78125 136.183594 929.792969 117.671875 C 927.390625 115.933594 924.960938 114.242188 922.515625 112.558594 C 896.1875 94.453125 860.449219 100.378906 841.285156 125.523438 C 851.464844 95.550781 836.386719 62.578125 806.621094 50.84375 C 803.910156 49.78125 801.183594 48.734375 798.441406 47.703125 C 768.515625 36.425781 735.183594 50.769531 722.636719 79.824219 C 725.3125 48.308594 702.753906 19.898438 671.058594 15.6875 C 668.160156 15.304688 665.253906 14.929688 662.351562 14.585938 C 630.722656 10.933594 601.855469 32.667969 596.554688 63.765625 C 591.578125 32.621094 563.015625 10.5 531.277344 13.886719 C 528.359375 14.214844 525.449219 14.535156 522.554688 14.886719 C 490.859375 18.765625 468.023438 46.851562 470.292969 78.351562 C 458.023438 49.238281 424.9375 34.601562 394.921875 45.496094 C 392.15625 46.515625 389.390625 47.550781 386.636719 48.597656 C 356.859375 59.992188 341.46875 92.652344 351.164062 122.644531 C 332.238281 97.449219 296.6875 91.210938 270.21875 108.976562 C 267.78125 110.605469 265.367188 112.253906 262.957031 113.929688 C 236.738281 132.125 229.625 167.574219 246.285156 194.390625 C 221.90625 174.367188 185.839844 176.742188 164.347656 200.320312 C 162.363281 202.488281 160.414062 204.675781 158.464844 206.875 C 137.316406 230.820312 138.863281 267 161.480469 289.054688 C 132.980469 275.34375 98.484375 286.289062 83.226562 314.347656 C 81.816406 316.925781 80.429688 319.535156 79.066406 322.136719 C 64.242188 350.480469 74.414062 385.246094 101.707031 401.246094 C 70.742188 394.769531 39.816406 413.671875 31.75 444.644531 C 31.023438 447.46875 30.296875 450.320312 29.597656 453.160156 C 22.039062 484.164062 40.222656 515.445312 70.472656 524.460938 C 38.945312 525.664062 13.546875 551.402344 13.121094 583.3125 C 13.085938 585.949219 13.070312 588.582031 13.070312 591.226562 L 13.070312 591.96875 C 13.070312 624.296875 38.792969 650.261719 70.886719 651.246094 C 39.820312 659.414062 20.683594 690.863281 27.957031 722.371094 C 28.621094 725.230469 29.300781 728.078125 30.003906 730.917969 C 37.675781 761.929688 68.277344 781.234375 99.320312 775.164062 C 71.882812 790.863281 61.324219 825.5 75.808594 853.988281 C 77.121094 856.585938 78.472656 859.179688 79.832031 861.757812 C 94.730469 889.976562 129.03125 901.335938 157.65625 888.070312 C 134.824219 909.894531 132.890625 946 153.746094 970.15625 C 155.648438 972.351562 157.566406 974.570312 159.5 976.734375 C 180.707031 1000.589844 216.765625 1003.421875 241.398438 983.667969 C 224.371094 1010.285156 231.066406 1045.878906 257.101562 1064.394531 C 259.472656 1066.078125 261.84375 1067.75 264.226562 1069.386719 C 290.558594 1087.570312 326.304688 1081.710938 345.515625 1056.59375 C 335.308594 1086.523438 350.316406 1119.511719 380.050781 1131.296875 C 382.769531 1132.367188 385.507812 1133.421875 388.242188 1134.453125 C 418.175781 1145.785156 451.511719 1131.480469 464.109375 1102.425781 C 461.378906 1133.945312 483.886719 1162.394531 515.589844 1166.664062 C 518.488281 1167.050781 521.394531 1167.414062 524.304688 1167.773438 C 555.996094 1171.554688 584.8125 1149.773438 590.164062 1118.667969 C 594.769531 1147.722656 619.90625 1168.976562 649.019531 1168.976562 C 651.121094 1168.976562 653.234375 1168.867188 655.367188 1168.636719 C 658.277344 1168.328125 661.1875 1167.996094 664.089844 1167.664062 C 695.789062 1163.804688 718.664062 1135.761719 716.441406 1104.253906 C 728.679688 1133.390625 761.757812 1148.101562 791.792969 1137.195312 C 794.550781 1136.195312 797.292969 1135.179688 800.023438 1134.148438 C 829.835938 1122.804688 845.289062 1090.160156 835.640625 1060.144531 C 854.550781 1085.40625 890.144531 1091.675781 916.636719 1073.882812 C 919.039062 1072.273438 921.429688 1070.632812 923.804688 1068.992188 C 950.066406 1050.832031 957.242188 1015.386719 940.625 988.539062 C 965.007812 1008.628906 1001.105469 1006.261719 1022.613281 982.648438 C 1024.570312 980.523438 1026.511719 978.367188 1028.429688 976.203125 C 1049.632812 952.289062 1048.160156 916.101562 1025.5625 893.984375 C 1054.011719 907.726562 1088.546875 896.851562 1103.859375 868.8125 C 1105.265625 866.238281 1106.648438 863.644531 1108.007812 861.066406 C 1122.894531 832.746094 1112.777344 797.945312 1085.503906 781.878906 C 1116.46875 788.421875 1147.414062 769.554688 1155.515625 738.609375 C 1156.261719 735.761719 1156.984375 732.9375 1157.679688 730.082031 C 1165.292969 699.085938 1147.15625 667.78125 1116.910156 658.714844 C 1148.421875 657.574219 1173.855469 631.875 1174.324219 599.972656 Z M 1174.324219 599.972656 " fill-opacity="1" fill-rule="nonzero"/><g clip-path="url(#632132890f)"><path stroke-linecap="butt" transform="matrix(2.327146, 0, 0, 2.327146, 11.957337, 12.420357)" fill="none" stroke-linejoin="miter" d="M 499.481728 252.477632 C 499.503549 251.230463 499.511942 249.973223 499.511942 248.517913 L 499.508585 248.081488 C 499.508585 234.344167 488.708741 223.126363 475.139276 222.473403 C 488.178316 218.735254 496.139718 205.385681 493.034385 192.024357 C 492.750709 190.78726 492.453604 189.556876 492.149785 188.333208 C 488.82624 175.015527 475.644522 166.748627 462.336912 169.373892 C 474.11032 162.61266 478.635713 147.727205 472.396512 135.495551 C 471.827481 134.380989 471.2467 133.26139 470.660883 132.153542 C 464.252147 120.044423 449.500978 115.184997 437.202182 120.898809 C 446.988176 111.51399 447.807312 96.004112 438.840454 85.630622 C 438.019639 84.687272 437.193789 83.745601 436.361224 82.807287 C 427.229867 72.556332 411.725025 71.361199 401.155143 79.868132 C 408.4468 68.447221 405.57143 53.182413 394.403982 45.227725 C 393.371669 44.480767 392.327606 43.753951 391.276828 43.030493 C 379.963346 35.250375 364.606217 37.796748 356.37121 48.601627 C 360.745533 35.72205 354.266298 21.55334 341.475684 16.510951 C 340.310765 16.054383 339.139131 15.60453 337.960783 15.16139 C 325.101349 10.315393 310.778211 16.479059 305.386682 28.964175 C 306.536494 15.421567 296.842821 3.213413 283.222999 1.403927 C 281.977509 1.239428 280.728662 1.078287 279.481493 0.930574 C 265.890207 -0.638878 253.485662 8.70062 251.207858 22.063622 C 249.069375 8.680477 236.795757 -0.825198 223.157471 0.630112 C 221.903588 0.771111 220.653062 0.908752 219.409251 1.059823 C 205.789429 2.726631 195.976578 14.795465 196.95182 28.331358 C 191.679469 15.821064 177.462081 9.531506 164.564039 14.213005 C 163.37562 14.651109 162.187201 15.095927 161.003817 15.54578 C 148.208168 20.442135 141.594648 34.47656 145.76083 47.36453 C 137.628215 36.537829 122.351657 33.857172 110.977746 41.491255 C 109.930326 42.191214 108.892977 42.899565 107.857306 43.619667 C 96.590824 51.438391 93.534169 66.671307 100.69322 78.194609 C 90.217338 69.59032 74.71921 70.610883 65.483782 80.742661 C 64.631075 81.67426 63.793474 82.614253 62.955874 83.559281 C 53.868159 93.848843 54.532868 109.39565 64.251721 118.872789 C 52.00496 112.98105 37.181612 117.68437 30.625164 129.741454 C 30.019204 130.849302 29.423316 131.970579 28.837499 133.088499 C 22.467371 145.268118 26.838336 160.207286 38.566423 167.08266 C 25.260491 164.299611 11.971346 172.422154 8.505123 185.731442 C 8.192911 186.94504 7.8807 188.170387 7.580238 189.390699 C 4.332227 202.713416 12.145916 216.15531 25.144671 220.029423 C 11.597027 220.546419 0.683042 231.606439 0.500079 245.318581 C 0.484972 246.451608 0.478258 247.582956 0.478258 248.71934 L 0.478258 249.038266 C 0.478258 262.930014 11.531564 274.087391 25.322598 274.510387 C 11.973024 278.020252 3.749768 291.534325 6.875243 305.073575 C 7.160598 306.30228 7.452667 307.525949 7.754808 308.746261 C 11.051496 322.072335 24.201321 330.367769 37.540823 327.75929 C 25.75063 334.505416 21.213488 349.389191 27.437581 361.630917 C 28.001577 362.747158 28.582358 363.86172 29.166496 364.969569 C 35.568518 377.095474 50.307937 381.976721 62.608412 376.276337 C 52.797239 385.654442 51.966353 401.169356 60.928175 411.54956 C 61.745633 412.49291 62.569805 413.446331 63.400692 414.376252 C 72.513584 424.627207 88.008355 425.844162 98.593344 417.355693 C 91.276508 428.793389 94.153557 444.088411 105.341148 452.044777 C 106.360032 452.768236 107.378917 453.486659 108.402838 454.189975 C 119.717999 462.003663 135.078485 459.485826 143.333635 448.692696 C 138.947562 461.55381 145.396583 475.729234 158.173768 480.793444 C 159.342044 481.253369 160.518714 481.70658 161.693705 482.149719 C 174.556496 487.019217 188.881312 480.872336 194.294663 468.38722 C 193.12135 481.931507 202.793203 494.156446 216.416382 495.99111 C 217.661872 496.157288 218.910719 496.313393 220.161245 496.467821 C 233.779388 498.092665 246.162112 488.733024 248.461737 475.366665 C 250.440757 487.851781 261.242279 496.984817 273.752574 496.984817 C 274.655638 496.984817 275.563738 496.937817 276.480231 496.838782 C 277.730757 496.706176 278.981283 496.563499 280.228451 496.420821 C 293.849951 494.762406 303.679588 482.712036 302.724489 469.172785 C 307.983412 481.693151 322.197443 488.014602 335.103877 483.328067 C 336.288939 482.898356 337.467287 482.461931 338.640599 482.018792 C 351.451356 477.144258 358.091732 463.116547 353.945693 450.218506 C 362.071594 461.073742 377.366616 463.767828 388.750598 456.121995 C 389.782911 455.430429 390.810189 454.725435 391.830752 454.02044 C 403.115699 446.216823 406.199211 430.985586 399.058624 419.448855 C 409.536185 428.08168 425.047741 427.064474 434.289883 416.917589 C 435.130841 416.004453 435.965084 415.077889 436.789256 414.147968 C 445.90047 403.871834 445.267654 388.321671 435.557194 378.817674 C 447.782134 384.722842 462.622267 380.049736 469.202216 368.001045 C 469.806497 366.894875 470.400706 365.780313 470.984845 364.672464 C 477.38183 352.502917 473.034364 337.548642 461.314671 330.644732 C 474.620602 333.456317 487.91814 325.34888 491.39947 312.051342 C 491.720074 310.827673 492.030608 309.614076 492.329391 308.387049 C 495.600901 295.06769 487.807355 281.615724 474.810279 277.719791 C 488.351208 277.229652 499.280301 266.186417 499.481728 252.477632 Z M 499.481728 252.477632 " stroke="#ffffff" stroke-width="0.9673" stroke-opacity="1" stroke-miterlimit="10"/></g><g clip-path="url(#81ebb80755)"><path fill="#ffffff" d="M 649.019531 1170.109375 C 620.789062 1170.109375 596.820312 1151.082031 590.125 1124.144531 C 583.140625 1150.628906 559.265625 1169.328125 531.449219 1169.328125 C 529.03125 1169.328125 526.585938 1169.183594 524.167969 1168.890625 C 521.253906 1168.542969 518.34375 1168.171875 515.445312 1167.789062 C 485.042969 1163.683594 462.8125 1137.855469 462.753906 1107.765625 C 452.1875 1127.1875 431.78125 1139.464844 409.367188 1139.464844 C 402.023438 1139.464844 394.777344 1138.132812 387.84375 1135.503906 C 385.101562 1134.476562 382.363281 1133.40625 379.640625 1132.339844 C 351.136719 1121.042969 335.765625 1090.640625 342.929688 1061.441406 C 331.449219 1074 315.402344 1081.09375 298.113281 1081.09375 C 285.75 1081.09375 273.816406 1077.363281 263.59375 1070.296875 C 261.210938 1068.671875 258.828125 1066.992188 256.457031 1065.300781 C 231.488281 1047.542969 223.828125 1014.355469 237.75 987.714844 C 227.839844 994.296875 216.085938 997.875 204.125 997.875 C 186.757812 997.875 170.191406 990.4375 158.664062 977.472656 C 156.84375 975.433594 155.046875 973.351562 153.257812 971.285156 L 152.90625 970.871094 C 132.921875 947.726562 133.363281 913.6875 153.164062 891.117188 C 146.585938 893.496094 139.710938 894.699219 132.660156 894.699219 C 110.027344 894.699219 89.402344 882.269531 78.835938 862.265625 C 77.476562 859.683594 76.125 857.078125 74.804688 854.480469 C 60.925781 827.171875 69.523438 794.207031 94.207031 777.054688 C 92.101562 777.285156 89.984375 777.386719 87.871094 777.386719 C 59.894531 777.386719 35.652344 758.390625 28.921875 731.179688 C 28.214844 728.328125 27.53125 725.480469 26.875 722.605469 C 19.875 692.308594 36.429688 662.363281 65.003906 651.910156 C 34.816406 648.160156 11.957031 622.859375 11.957031 591.972656 L 11.957031 591.226562 C 11.957031 588.574219 11.972656 585.941406 12.007812 583.300781 C 12.410156 552.722656 35.304688 527.546875 65.066406 523.785156 C 37.160156 512.722656 21.261719 482.621094 28.511719 452.898438 C 29.207031 450.054688 29.933594 447.199219 30.667969 444.371094 C 37.648438 417.574219 61.84375 398.859375 89.488281 398.859375 C 91.859375 398.859375 94.226562 399 96.589844 399.277344 C 72.089844 381.851562 63.863281 348.789062 78.078125 321.625 C 79.441406 319.011719 80.832031 316.402344 82.25 313.816406 C 92.894531 294.222656 113.378906 282.046875 135.699219 282.046875 C 143.039062 282.046875 150.179688 283.347656 156.984375 285.914062 C 137.421875 263.128906 137.355469 229.089844 157.628906 206.136719 C 159.585938 203.933594 161.542969 201.738281 163.523438 199.566406 C 175.015625 186.964844 191.398438 179.738281 208.464844 179.738281 C 220.699219 179.738281 232.664062 183.457031 242.703125 190.300781 C 229.152344 163.519531 237.214844 130.449219 262.332031 113.011719 C 264.742188 111.332031 267.167969 109.679688 269.601562 108.046875 C 279.667969 101.296875 291.367188 97.71875 303.4375 97.71875 C 320.699219 97.71875 337.25 105.160156 348.6875 117.855469 C 341.972656 88.628906 357.726562 58.464844 386.253906 47.546875 C 389.019531 46.5 391.78125 45.457031 394.550781 44.445312 C 401.261719 42.003906 408.25 40.773438 415.328125 40.773438 C 438.03125 40.773438 458.570312 53.277344 469.03125 73.039062 C 469.503906 43.007812 492.058594 17.480469 522.433594 13.769531 C 525.332031 13.421875 528.242188 13.09375 531.164062 12.769531 C 533.332031 12.535156 535.535156 12.421875 537.703125 12.421875 C 565.898438 12.421875 589.867188 31.414062 596.589844 58.292969 C 603.542969 31.78125 627.484375 13.058594 655.421875 13.058594 C 657.769531 13.058594 660.136719 13.195312 662.484375 13.464844 C 665.398438 13.8125 668.308594 14.1875 671.210938 14.570312 C 701.617188 18.605469 723.890625 44.394531 723.992188 74.484375 C 734.542969 55.03125 754.96875 42.730469 777.417969 42.730469 C 784.734375 42.730469 791.941406 44.046875 798.851562 46.652344 C 801.59375 47.683594 804.320312 48.734375 807.039062 49.800781 C 835.585938 61.050781 851.011719 91.441406 843.878906 120.664062 C 855.371094 108.058594 871.449219 100.929688 888.78125 100.929688 C 901.09375 100.929688 912.980469 104.632812 923.160156 111.632812 C 925.609375 113.328125 928.046875 115.019531 930.457031 116.761719 C 955.351562 134.492188 963.015625 167.621094 949.160156 194.214844 C 959.085938 187.609375 970.859375 184.015625 982.847656 184.015625 C 1000.1875 184.015625 1016.75 191.433594 1028.28125 204.378906 C 1030.21875 206.5625 1032.144531 208.757812 1034.050781 210.960938 C 1054.046875 234.089844 1053.640625 268.121094 1033.894531 290.695312 C 1040.492188 288.300781 1047.394531 287.085938 1054.476562 287.085938 C 1077.085938 287.085938 1097.695312 299.480469 1108.257812 319.429688 C 1109.625 322.011719 1110.976562 324.625 1112.300781 327.226562 C 1126.214844 354.511719 1117.664062 387.480469 1093.007812 404.660156 C 1095.140625 404.433594 1097.285156 404.320312 1099.421875 404.320312 C 1127.359375 404.320312 1151.59375 423.277344 1158.371094 450.425781 C 1159.078125 453.285156 1159.769531 456.148438 1160.4375 459.035156 C 1167.351562 488.828125 1151.128906 518.75 1123.117188 529.515625 C 1152.90625 533.589844 1175.527344 559.074219 1175.527344 589.738281 L 1175.535156 590.753906 C 1175.535156 594.152344 1175.507812 597.082031 1175.46875 599.988281 C 1175.019531 630.5625 1152.09375 655.695312 1122.328125 659.410156 C 1150.222656 670.515625 1166.082031 700.644531 1158.78125 730.351562 C 1158.070312 733.210938 1157.363281 736.042969 1156.605469 738.902344 C 1149.613281 765.628906 1125.449219 784.304688 1097.84375 784.304688 C 1097.839844 784.304688 1097.839844 784.304688 1097.839844 784.304688 C 1095.4375 784.304688 1093.027344 784.164062 1090.621094 783.871094 C 1115.105469 801.363281 1123.277344 834.449219 1108.996094 861.589844 C 1107.640625 864.179688 1106.246094 866.777344 1104.847656 869.351562 C 1094.179688 888.898438 1073.703125 901.042969 1051.410156 901.042969 C 1044.046875 901.042969 1036.886719 899.734375 1030.054688 897.148438 C 1049.59375 919.980469 1049.597656 954.035156 1029.269531 976.960938 C 1027.34375 979.128906 1025.402344 981.285156 1023.445312 983.410156 C 1011.953125 996.023438 995.578125 1003.253906 978.507812 1003.253906 C 966.253906 1003.253906 954.261719 999.519531 944.210938 992.640625 C 957.726562 1019.449219 949.597656 1052.515625 924.441406 1069.914062 C 922.0625 1071.554688 919.675781 1073.191406 917.261719 1074.808594 C 907.203125 1081.566406 895.5 1085.140625 883.433594 1085.140625 C 866.136719 1085.140625 849.574219 1077.671875 838.132812 1064.921875 C 844.800781 1094.160156 828.992188 1124.3125 800.433594 1135.175781 C 797.691406 1136.210938 794.945312 1137.226562 792.1875 1138.230469 C 785.480469 1140.664062 778.511719 1141.894531 771.449219 1141.894531 C 748.710938 1141.894531 728.167969 1129.355469 717.71875 1109.542969 C 717.203125 1139.566406 694.617188 1165.054688 664.238281 1168.757812 L 663.214844 1168.875 C 660.644531 1169.171875 658.074219 1169.460938 655.5 1169.734375 C 653.410156 1169.992188 651.230469 1170.109375 649.019531 1170.109375 Z M 590.214844 1111.769531 L 591.28125 1118.503906 C 595.734375 1146.644531 620.558594 1167.863281 649.019531 1167.863281 C 651.148438 1167.863281 653.242188 1167.75 655.242188 1167.523438 C 657.816406 1167.253906 660.382812 1166.960938 662.949219 1166.671875 L 663.964844 1166.550781 C 694.953125 1162.78125 717.523438 1135.460938 715.316406 1104.339844 L 714.839844 1097.539062 L 717.480469 1103.828125 C 726.628906 1125.605469 747.808594 1139.675781 771.441406 1139.675781 C 778.242188 1139.675781 784.964844 1138.488281 791.410156 1136.148438 C 794.164062 1135.148438 796.902344 1134.136719 799.625 1133.097656 C 828.746094 1122.023438 844.089844 1090.132812 834.574219 1060.5 L 832.515625 1054.089844 L 836.542969 1059.476562 C 847.519531 1074.15625 865.039062 1082.90625 883.414062 1082.90625 C 895.039062 1082.90625 906.304688 1079.464844 916.003906 1072.960938 C 918.398438 1071.359375 920.785156 1069.71875 923.152344 1068.082031 C 948.816406 1050.335938 956.074219 1015.660156 939.660156 989.140625 L 936.074219 983.351562 L 941.335938 987.683594 C 951.769531 996.273438 964.96875 1001.015625 978.511719 1001.015625 C 994.945312 1001.015625 1010.722656 994.050781 1021.789062 981.90625 C 1023.734375 979.78125 1025.675781 977.628906 1027.589844 975.46875 C 1048.324219 952.078125 1047.089844 916.648438 1024.769531 894.804688 L 1019.855469 889.992188 L 1026.046875 892.988281 C 1034.03125 896.84375 1042.570312 898.800781 1051.40625 898.800781 C 1072.878906 898.800781 1092.589844 887.109375 1102.863281 868.285156 C 1104.265625 865.71875 1105.644531 863.132812 1107 860.554688 C 1121.5625 832.859375 1111.863281 798.726562 1084.917969 782.855469 L 1078.980469 779.355469 L 1085.71875 780.785156 C 1089.707031 781.621094 1093.777344 782.050781 1097.828125 782.050781 C 1124.414062 782.050781 1147.679688 764.070312 1154.417969 738.328125 C 1155.15625 735.484375 1155.871094 732.660156 1156.578125 729.820312 C 1164.019531 699.507812 1146.445312 668.753906 1116.570312 659.796875 L 1110.054688 657.839844 L 1116.855469 657.597656 C 1147.992188 656.46875 1172.746094 631.144531 1173.199219 599.957031 C 1173.246094 597.058594 1173.269531 594.140625 1173.269531 590.757812 L 1173.261719 589.742188 C 1173.261719 558.460938 1148.820312 532.777344 1117.613281 531.273438 L 1110.8125 530.941406 L 1117.355469 529.0625 C 1147.328125 520.472656 1165.28125 489.9375 1158.222656 459.539062 C 1157.558594 456.664062 1156.871094 453.804688 1156.167969 450.960938 C 1149.644531 424.824219 1126.304688 406.5625 1099.398438 406.5625 C 1095.621094 406.5625 1091.820312 406.9375 1088.101562 407.671875 L 1081.394531 408.988281 L 1087.320312 405.585938 C 1114.390625 390.042969 1124.480469 356.066406 1110.285156 328.234375 C 1108.96875 325.644531 1107.621094 323.046875 1106.257812 320.46875 C 1096.085938 301.257812 1076.242188 289.324219 1054.464844 289.324219 C 1045.917969 289.324219 1037.640625 291.15625 1029.863281 294.769531 L 1023.722656 297.628906 L 1028.609375 292.9375 C 1051.097656 271.375 1052.742188 236.003906 1032.34375 212.417969 C 1030.441406 210.226562 1028.515625 208.035156 1026.582031 205.859375 C 1015.476562 193.398438 999.53125 186.246094 982.832031 186.246094 C 969.546875 186.246094 956.53125 190.828125 946.203125 199.144531 L 940.851562 203.453125 L 944.546875 197.667969 C 961.308594 171.414062 954.539062 136.671875 929.136719 118.574219 C 926.734375 116.835938 924.308594 115.15625 921.867188 113.472656 C 912.066406 106.734375 900.621094 103.171875 888.757812 103.171875 C 870.304688 103.171875 853.324219 111.5625 842.167969 126.195312 L 837.992188 131.675781 L 840.203125 125.15625 C 850.257812 95.550781 835.316406 63.367188 806.195312 51.886719 C 803.488281 50.824219 800.769531 49.785156 798.035156 48.75 C 791.386719 46.246094 784.441406 44.972656 777.40625 44.972656 C 754.015625 44.972656 732.921875 58.824219 723.660156 80.265625 L 720.914062 86.609375 L 721.503906 79.722656 C 724.160156 48.558594 701.929688 20.917969 670.902344 16.796875 C 668.007812 16.414062 665.109375 16.042969 662.207031 15.695312 C 659.957031 15.433594 657.667969 15.304688 655.410156 15.304688 C 626.753906 15.304688 602.460938 35.761719 597.65625 63.949219 L 596.511719 70.671875 L 595.433594 63.9375 C 590.882812 35.382812 566.59375 14.660156 537.691406 14.660156 C 535.605469 14.660156 533.484375 14.777344 531.394531 15 C 528.484375 15.324219 525.578125 15.648438 522.6875 15.996094 C 491.699219 19.789062 469.175781 47.140625 471.414062 78.261719 L 471.902344 85.066406 L 469.25 78.78125 C 460.097656 57.054688 438.917969 43.011719 415.308594 43.011719 C 408.492188 43.011719 401.765625 44.203125 395.300781 46.546875 C 392.539062 47.5625 389.785156 48.597656 387.039062 49.640625 C 357.949219 60.769531 342.660156 92.683594 352.230469 122.289062 L 354.300781 128.691406 L 350.261719 123.3125 C 339.28125 108.691406 321.773438 99.960938 303.421875 99.960938 C 291.800781 99.960938 280.535156 103.402344 270.839844 109.902344 C 268.410156 111.527344 265.996094 113.167969 263.601562 114.839844 C 237.96875 132.628906 230.785156 167.304688 247.238281 193.785156 L 250.839844 199.574219 L 245.566406 195.246094 C 235.144531 186.6875 221.960938 181.972656 208.449219 181.972656 C 192.011719 181.972656 176.238281 188.933594 165.167969 201.070312 C 163.195312 203.234375 161.238281 205.421875 159.296875 207.613281 C 138.613281 231.035156 139.914062 266.453125 162.257812 288.246094 L 167.179688 293.042969 L 160.984375 290.066406 C 153.011719 286.226562 144.496094 284.285156 135.683594 284.285156 C 114.195312 284.285156 94.464844 296.007812 84.214844 314.878906 C 82.808594 317.449219 81.421875 320.054688 80.058594 322.652344 C 65.5625 350.375 75.316406 384.464844 102.269531 400.269531 L 108.214844 403.75 L 101.476562 402.34375 C 97.527344 401.523438 93.492188 401.101562 89.484375 401.101562 C 62.859375 401.101562 39.5625 419.121094 32.839844 444.925781 C 32.113281 447.742188 31.390625 450.585938 30.699219 453.421875 C 23.300781 483.746094 40.921875 514.472656 70.796875 523.378906 L 77.320312 525.324219 L 70.519531 525.582031 C 39.378906 526.769531 14.664062 552.128906 14.246094 583.316406 C 14.222656 585.953125 14.199219 588.578125 14.199219 591.222656 L 14.199219 591.96875 C 14.199219 623.605469 39.117188 649.144531 70.921875 650.117188 L 78.695312 650.355469 L 71.179688 652.339844 C 40.386719 660.433594 21.886719 691.078125 29.058594 722.109375 C 29.714844 724.972656 30.390625 727.804688 31.09375 730.644531 C 37.578125 756.847656 60.917969 775.144531 87.867188 775.144531 C 91.617188 775.144531 95.398438 774.785156 99.105469 774.054688 L 105.8125 772.746094 L 99.882812 776.136719 C 72.78125 791.636719 62.648438 825.617188 76.808594 853.472656 C 78.121094 856.058594 79.472656 858.660156 80.828125 861.222656 C 91.003906 880.484375 110.859375 892.457031 132.65625 892.457031 C 141.167969 892.457031 149.425781 890.628906 157.183594 887.035156 L 163.335938 884.179688 L 158.4375 888.871094 C 135.898438 910.421875 134.222656 945.792969 154.605469 969.402344 L 154.957031 969.816406 C 156.742188 971.875 158.53125 973.941406 160.34375 975.972656 C 171.445312 988.457031 187.402344 995.613281 204.121094 995.613281 C 217.382812 995.613281 230.371094 991.054688 240.699219 982.769531 L 246.046875 978.480469 L 242.351562 984.25 C 225.523438 1010.558594 232.289062 1045.347656 257.757812 1063.460938 C 260.121094 1065.148438 262.492188 1066.804688 264.871094 1068.441406 C 274.714844 1075.242188 286.210938 1078.832031 298.113281 1078.832031 C 316.523438 1078.832031 333.476562 1070.46875 344.621094 1055.894531 L 348.800781 1050.433594 L 346.582031 1056.945312 C 336.5 1086.527344 351.378906 1118.710938 380.46875 1130.230469 C 383.179688 1131.304688 385.910156 1132.359375 388.644531 1133.386719 C 395.324219 1135.914062 402.292969 1137.199219 409.367188 1137.199219 C 432.714844 1137.199219 453.796875 1123.371094 463.074219 1101.964844 L 465.828125 1095.621094 L 465.226562 1102.511719 C 462.53125 1133.675781 484.71875 1161.359375 515.742188 1165.542969 C 518.628906 1165.925781 521.527344 1166.285156 524.433594 1166.648438 C 526.757812 1166.925781 529.117188 1167.070312 531.445312 1167.070312 C 559.980469 1167.070312 584.207031 1146.636719 589.050781 1118.476562 Z M 590.214844 1111.769531 " fill-opacity="1" fill-rule="nonzero"/></g></g></g></g></svg>